<?xml version="1.0" encoding="UTF-8"?>
<svg width="40px" height="40px" viewBox="0 0 40 40" version="1.1" xmlns="http://www.w3.org/2000/svg" xmlns:xlink="http://www.w3.org/1999/xlink">
    <!-- Generator: Sketch 50.2 (55047) - http://www.bohemiancoding.com/sketch -->
    <title>Group</title>
    <desc>Created with Sketch.</desc>
    <defs></defs>
    <g id="App" stroke="none" stroke-width="1" fill="none" fill-rule="evenodd">
        <g id="Home-Copy" transform="translate(-31.000000, -158.000000)" fill="#FA6900">
            <g id="Group-2" transform="translate(31.000000, 144.000000)">
                <g id="Group" transform="translate(0.000000, 14.000000)">
                    <path d="M11.4380693,28.5898075 C13.7354422,33.184717 21.0730816,34.6376358 24.6025906,33.0158098 C19.4818385,33.7093255 14.8608722,32.9404129 11.4380693,28.5898075 M31.8975931,33.0975464 C31.9276897,32.9112051 31.9753427,32.803657 31.9454741,32.7751284 C30.1310146,31.026056 30.3357626,28.9803771 31.1711709,26.9220188 C32.1894388,24.4133169 33.323761,21.9512568 34.4013101,19.4663287 C34.5543011,19.1133444 34.6710393,18.7447372 34.8044219,18.3831491 C34.70524,18.3392241 34.6060581,18.2948464 34.5066481,18.250695 C34.2679275,18.7365862 34.0011622,19.2111566 33.7950462,19.7101799 C32.6187712,22.5571491 31.325758,25.3658538 30.3348506,28.2755405 C29.6250727,30.3599367 30.3239064,32.0202536 31.8975931,33.0975464 M18.6154216,18.7051142 C17.3987898,19.1998357 16.3410771,19.6302547 15.2833645,20.0604473 C15.2908886,20.1806748 15.2986408,20.3011287 15.3063929,20.4215826 C21.657457,18.0360516 26.0850755,19.38346 27.8762786,26.4205048 C27.7700285,25.6907624 27.6177215,24.9637369 27.5718926,24.2301454 C27.5317638,23.5914226 27.4068174,22.841529 27.6740386,22.3203168 C28.8767621,19.9757673 30.2557331,17.7204261 31.4664367,15.3797257 C32.0090873,14.3305086 32.6762284,13.5606903 33.7610736,13.0385724 C35.01259,12.4367556 36.6195654,11.9250529 37.2552418,10.8830812 C37.8685738,9.87756264 37.4483616,8.24622712 37.46797,6.88976201 C37.4814223,5.95647054 37.470478,5.02295266 37.470478,4 C39.2997578,5.22740734 40.334442,7.45263503 39.6264882,9.10638585 C38.1661196,12.5184922 38.4034723,15.9373911 39.1385586,19.4273849 C39.8323762,22.7217544 40.3232698,26.0403505 39.7439105,29.415098 C39.0498649,33.4568704 37.1629,36.8662598 34.1511892,39.653002 C33.887616,39.8968532 33.3789381,40.0374583 33.014131,39.9912692 C28.9782241,39.4813778 24.932285,39.9013816 20.9020783,39.8008524 C13.1788833,39.6081714 6.99471848,36.0944037 2.45081768,29.9093666 C-0.111952407,26.4214105 -0.753100937,22.5383565 0.94712829,18.4574139 C2.6824702,14.2917913 6.21334721,12.4867938 10.8304374,13.4327646 C14.1173497,14.1061292 16.7854578,15.7646348 18.6154216,18.7051142" id="Fill-4"></path>
                    <path d="M36.8661356,7.04287069 C36.8661356,7.45008488 36.8084936,7.86642245 36.8760105,8.26295562 C37.1876445,10.0867412 36.4394472,11.2004608 34.6571393,11.8809313 C33.3885568,12.365583 32.2143601,13.0990136 31.0369483,13.7839345 C30.4954354,14.0990248 30.1064095,14.0574133 29.5896987,13.73765 C27.9810056,12.7418667 26.3126037,11.8350919 24.721364,10.8146087 C24.3598961,10.5829639 24.0124367,10.0353387 24.0064658,9.62834703 C23.9791376,7.70398182 24.0404539,5.77627879 24.1522931,3.85436131 C24.1725023,3.50389008 24.4930926,3.04149057 24.813683,2.85768788 C26.4887447,1.89706292 28.191594,0.97760443 29.9265942,0.123567232 C30.2811726,-0.0511120806 30.9030628,-0.0388734026 31.2498332,0.149379716 C32.981159,1.0895327 34.6819414,2.08731874 36.3429945,3.13962252 C36.6693261,3.34612239 36.912984,3.86927024 36.9515651,4.26847366 C37.0404393,5.18615199 36.9798119,6.1171816 36.9798119,7.04287069 L36.8661356,7.04287069 Z" id="Fill-6"></path>
                    <path d="M36,3 C35.3429795,2.43811477 34.6859591,1.87645766 34,1.28993434 C34.8713928,0.691548242 35.1476841,0.908500275 36,3" id="Fill-8"></path>
                    <path d="M28.4048237,6.91277087 C28.4046088,8.07035054 29.4874704,9.47027589 30.3936523,9.48399357 C31.447927,9.4998772 32.4809228,8.10356176 32.4800631,6.66368667 C32.4796332,5.86757991 31.2261102,4.48426017 30.475544,4.4512896 C29.59408,4.41254317 28.4052536,5.82546422 28.4048237,6.91277087 M33,6.97774935 C32.8893065,7.58854711 32.9572272,8.37358346 32.64879,8.6736878 C32.0175148,9.28785481 31.1818328,10.0052654 30.4342757,9.99997087 C29.6912323,9.99467633 28.8359909,9.28424489 28.2580205,8.63060947 C27.9308837,8.26047277 28.0132052,7.38326323 28.0033181,6.73251574 C27.9957952,6.24132652 27.9792449,5.52632253 28.238676,5.29793519 C28.8996128,4.71625742 29.7155204,3.99307096 30.4641522,4.00005013 C31.209345,4.00751062 32.030841,4.73045643 32.6550232,5.34751137 C32.9617409,5.6507443 32.8974742,6.42422893 33,6.97774935" id="Fill-14"></path>
                    <path d="M31.3957801,7.58470659 C31.4160333,6.67367274 30.8561178,5.94766649 30.0962023,5.9000948 C29.2696201,5.84822013 28.6018987,6.56131748 28.6080168,7.4895632 C28.613502,8.34657091 29.2474682,9.11345535 29.9738394,9.14142464 C30.7196199,9.17011109 31.3765818,8.45127645 31.3957801,7.58470659 M28,7.44581636 C28.0004219,6.36601056 29.1672994,4.96228692 30.0327002,5.00077458 C30.7694089,5.03376399 31.9995775,6.40784497 31.9999995,7.19863478 C32.0008434,8.62865434 30.9871304,10.0156442 29.9521094,9.99986666 C29.0626581,9.98647965 27.999789,8.59566492 28,7.44581636" id="Fill-16"></path>
                    <path d="M30.8109246,6.28956088 C30.6477227,6.27939409 30.4845208,6.26922729 30.3213189,6.25883948 C30.0300977,6.65357634 29.5198365,7.04521895 29.5139349,7.44393412 C29.5087142,7.79026819 30.1059106,8.45066781 30.3803349,8.42392472 C30.7954896,8.38347856 31.4015384,7.9144799 31.480075,7.53897154 C31.554753,7.18158661 31.0569758,6.71059879 30.8109246,6.28956088 M31.9994157,7.55996819 C31.9787601,8.36115581 31.2721572,9.02575476 30.4697668,8.99923269 C29.688259,8.97337367 29.0059434,8.26435025 29.0000418,7.47200331 C28.9936863,6.61379323 29.7120924,5.95449869 30.6011909,6.00245944 C31.4187892,6.04644188 32.0214332,6.71767135 31.9994157,7.55996819" id="Fill-18"></path>
                    <path d="M31.3142888,6.0283686 C31.5636153,6.41716133 32.0680185,6.85207855 31.9923465,7.18209316 C31.9127644,7.52884321 31.2986484,7.96192361 30.8779674,7.99927221 C30.5998901,8.02396718 29.9947443,7.41414425 30.0000345,7.09433417 C30.0060146,6.7261546 30.5230681,6.36450594 30.8181658,6 C30.9835402,6.00959226 31.1489145,6.01898043 31.3142888,6.0283686" id="Fill-20"></path>
                </g>
            </g>
        </g>
    </g>
</svg>